<svg height="512" viewBox="0 0 64 64" width="512" xmlns="http://www.w3.org/2000/svg"><g id="Fill_Outline" data-name="Fill Outline"><g id="Stroke_copy" data-name="Stroke copy"><g><g><path d="m3 45h36v7h-36z" fill="#fcbc04"/><path d="m53 32h-14v20h22v-8z" fill="#f9e109"/><path d="m61 44h-11a4 4 0 0 1 -4-4v-8h7z" fill="#84d2f4"/><path d="m3 23h36v22h-36z" fill="#f89c8d"/><path d="m39 45v7h-36v-7h3a3 3 0 0 0 3 3h22.76a10.233 10.233 0 0 0 7.24-3z" fill="#e59730"/><path d="m39 32v13h-36v-22h5v2a14 14 0 0 0 14 14h7.52a9.914 9.914 0 0 0 9.48-7z" fill="#f8664f"/><path d="m61 48v4h-22v-20h4v8a8 8 0 0 0 8 8z" fill="#fcbc04"/><path d="m61 44h-11a4 4 0 0 1 -4-4v-8h3v1a8 8 0 0 0 8 8h2z" fill="#57b7eb"/><circle cx="49" cy="55" fill="#93999a" r="6"/><circle cx="49" cy="55" fill="#d0d8da" r="2"/><circle cx="13" cy="55" fill="#93999a" r="6"/><circle cx="13" cy="55" fill="#d0d8da" r="2"/><g fill="#656b76"><path d="m54.12 58.12a6 6 0 1 1 -8.24-8.24 5.91 5.91 0 0 0 -.88 3.12 6 6 0 0 0 6 6 5.91 5.91 0 0 0 3.12-.88z"/><path d="m18.12 58.12a6 6 0 1 1 -8.24-8.24 5.91 5.91 0 0 0 -.88 3.12 6 6 0 0 0 6 6 5.91 5.91 0 0 0 3.12-.88z"/></g></g><g><path d="m57 3h-14a4 4 0 0 0 -4 4v12a4 4 0 0 0 4 4h6v5l5-5h3a4 4 0 0 0 4-4v-12a4 4 0 0 0 -4-4z" fill="#84d2f4"/><path d="m60 19a15 15 0 0 1 -15-15v-1h-2a4 4 0 0 0 -4 4v12a4 4 0 0 0 4 4h6v5l5-5h3a4 4 0 0 0 4-4z" fill="#57b7eb"/><g><rect fill="#f9e109" height="12" rx="2" width="10" x="45" y="7"/><g fill="#fcbc04"><path d="m54.71 18.04a2.03 2.03 0 0 1 -1.71.96h-6a2.006 2.006 0 0 1 -2-2v-8a1.978 1.978 0 0 1 .46-1.27 15.074 15.074 0 0 0 9.25 10.31z"/><path d="m54.71 18.04a2.03 2.03 0 0 1 -1.71.96h-6a2.006 2.006 0 0 1 -2-2v-8a1.978 1.978 0 0 1 .46-1.27 15.074 15.074 0 0 0 9.25 10.31z"/><path d="m46.231 7.154a2 2 0 0 0 -1.231 1.846v8a2 2 0 0 0 2 2h6a2 2 0 0 0 2-2h-7a1 1 0 0 1 -1-1h8v-7h-6a3 3 0 0 1 -2.769-1.846z"/></g><path d="m52.52 17h-4.52a1 1 0 0 1 -1-1h4a15.093 15.093 0 0 1 -5.54-8.28 2.041 2.041 0 0 0 -.46 1.28v8a2.006 2.006 0 0 0 2 2h6a2.03 2.03 0 0 0 1.71-.96 15.684 15.684 0 0 1 -2.19-1.04z" fill="#e59730"/><path d="m55 15h-10a2 2 0 0 1 -2-2 2 2 0 0 1 2-2h10a2 2 0 0 1 2 2 2 2 0 0 1 -2 2z" fill="#f89c8d"/><path d="m45 11a2 2 0 0 0 0 4h10a2 2 0 0 0 2-2h-10a2 2 0 0 1 -2-2z" fill="#f8664f"/><path d="m49.82 15h-4.82a2.006 2.006 0 0 1 -2-2 2.015 2.015 0 0 1 2-2h1.73a14.734 14.734 0 0 0 3.09 4z" fill="#f8664f"/><path d="m49.82 15h-4.82a2 2 0 0 1 0-4 2.006 2.006 0 0 0 2 2h1a14.411 14.411 0 0 0 1.82 2z" fill="#cc5144"/></g></g></g></g><g id="Outline_copy" data-name="Outline copy"><g fill="#464a51"><path d="m61.883 43.554a.9.9 0 0 0 -.051-.109l-8-12a1 1 0 0 0 -.832-.445h-10a1 1 0 0 0 0 2h9.465l6.666 10h-9.131a3 3 0 0 1 -3-3v-4a1 1 0 0 0 -2 0v4a5.006 5.006 0 0 0 5 5h10v6h-1.81a1 1 0 0 0 0 2h2.81a1 1 0 0 0 1-1v-8a.981.981 0 0 0 -.07-.347.9.9 0 0 0 -.047-.099z"/><path d="m11 31a1 1 0 0 0 0-2h-4a1 1 0 0 0 -1 1v8a1 1 0 0 0 2 0v-3h2a1 1 0 0 0 0-2h-2v-2z"/><path d="m27 31a1 1 0 0 0 0-2h-4a1 1 0 0 0 -1 1v8a1 1 0 0 0 1 1h4a1 1 0 0 0 0-2h-3v-2h2a1 1 0 0 0 0-2h-2v-2z"/><path d="m35 31a1 1 0 0 0 0-2h-4a1 1 0 0 0 -1 1v8a1 1 0 0 0 1 1h4a1 1 0 0 0 0-2h-3v-2h2a1 1 0 0 0 0-2h-2v-2z"/><path d="m20 32.205v-.405a2.8 2.8 0 0 0 -2.8-2.8h-2.2a1 1 0 0 0 -1 1v8a1 1 0 0 0 2 0v-2.829a3.006 3.006 0 0 1 2 2.829 1 1 0 0 0 2 0 4.97 4.97 0 0 0 -1.362-3.408 2.788 2.788 0 0 0 1.362-2.387zm-4-1.205h1.2a.8.8 0 0 1 .8.8v.41a.8.8 0 0 1 -.8.8h-1.2z"/><path d="m49 58a3 3 0 1 0 -3-3 3 3 0 0 0 3 3zm0-4a1 1 0 1 1 -1 1 1 1 0 0 1 1-1z"/><path d="m13 58a3 3 0 1 0 -3-3 3 3 0 0 0 3 3zm0-4a1 1 0 1 1 -1 1 1 1 0 0 1 1-1z"/><path d="m61 12a1 1 0 0 0 1-1v-4a5.006 5.006 0 0 0 -5-5h-41a1 1 0 0 0 0 2h23.026a4.948 4.948 0 0 0 -1.026 3v2h-10a1 1 0 0 0 0 2h10v4h-5a1 1 0 0 0 0 2h5v2a4.947 4.947 0 0 0 1.031 3.006c-.011 0-.02-.006-.031-.006h-22a1 1 0 0 0 0 2h21v20h-34v-20h9a1 1 0 0 0 0-2h-10a1 1 0 0 0 -1 1v29a1 1 0 0 0 1 1h3.3a7.024 7.024 0 1 0 .969-2h-3.269v-5h34v5h-15.81a1 1 0 1 0 0 2h20.11a7.024 7.024 0 1 0 .969-2h-3.269v-28c0-.011-.006-.02-.006-.031a4.947 4.947 0 0 0 3.006 1.031h5v4a1 1 0 0 0 1.707.707l4.707-4.707h1.586a6.006 6.006 0 0 0 6-6v-3a1 1 0 0 0 -2 0v3a4 4 0 0 1 -4 4h-2a1 1 0 0 0 -.707.293l-3.293 3.293v-2.586a1 1 0 0 0 -1-1h-6a3 3 0 0 1 -3-3v-12a3 3 0 0 1 3-3h14a3 3 0 0 1 3 3v4a1 1 0 0 0 1 1zm-48 38a5 5 0 1 1 -5 5 5.006 5.006 0 0 1 5-5zm36 0a5 5 0 1 1 -5 5 5.006 5.006 0 0 1 5-5z"/><path d="m47 20h6a3 3 0 0 0 3-3v-1.184a2.982 2.982 0 0 0 0-5.632v-1.184a3 3 0 0 0 -3-3h-6a3 3 0 0 0 -3 3v1.184a2.982 2.982 0 0 0 0 5.632v1.184a3 3 0 0 0 3 3zm6-2h-6a1 1 0 0 1 -1-1v-1h8v1a1 1 0 0 1 -1 1zm-6-10h6a1 1 0 0 1 1 1v1h-8v-1a1 1 0 0 1 1-1zm-2 4h1a1 1 0 0 0 2 0h1a1 1 0 0 0 2 0h1a1 1 0 0 0 2 0h1a1 1 0 0 1 0 2h-10a1 1 0 0 1 0-2z"/><path d="m28 19a1 1 0 0 0 -1-1h-15a1 1 0 0 0 0 2h15a1 1 0 0 0 1-1z"/><path d="m19 15a1 1 0 0 0 0-2h-3a1 1 0 0 0 0 2z"/><path d="m9 9h10a1 1 0 0 0 0-2h-10a1 1 0 0 0 0 2z"/></g></g></g></svg>