<svg id="Layer_1" enable-background="new 0 0 256 256" height="512" viewBox="0 0 256 256" width="512" xmlns="http://www.w3.org/2000/svg"><path d="m71.744 95.238c-.974 11.564-13.024 13.39-13.024 13.39 10.347.487 12.925 14.059 12.925 14.059.221-9.677 13.321-14.202 13.321-14.202-9.814-.588-13.222-13.247-13.222-13.247z" fill="#d7e057"/><path d="m85.056 106.986c-8.605-.515-11.833-12.024-11.864-12.141-.19-.702-.847-1.165-1.583-1.102-.725.066-1.298.642-1.359 1.367-.86 10.215-11.314 11.964-11.754 12.033-.763.115-1.313.79-1.273 1.561.04.77.657 1.384 1.428 1.421 9.028.425 11.499 12.718 11.523 12.842.137.711.759 1.217 1.472 1.217.042 0 .084-.002.126-.005.764-.064 1.357-.693 1.375-1.46.195-8.509 12.192-12.777 12.313-12.819.675-.235 1.092-.914.994-1.623-.101-.707-.685-1.248-1.398-1.291zm-13.567 10.346c-1.356-3.13-3.709-6.907-7.587-8.876 2.931-1.405 6.409-3.913 8.202-8.273 1.551 3.071 4.2 6.88 8.334 8.722-3.007 1.641-6.922 4.406-8.949 8.427z" fill="#3a312a"/><path d="m50.045 112.218c-.689 8.179-9.212 9.471-9.212 9.471 7.318.344 9.142 9.944 9.142 9.944.156-6.844 9.422-10.045 9.422-10.045-6.941-.416-9.352-9.37-9.352-9.37z" fill="#d7e057"/><path d="m59.487 120.09c-5.766-.345-7.972-8.186-7.994-8.265-.19-.702-.851-1.166-1.582-1.102-.726.065-1.299.642-1.36 1.368-.579 6.871-7.646 8.067-7.942 8.114-.763.115-1.314.79-1.273 1.56.04.77.657 1.384 1.428 1.421 6.035.284 7.723 8.644 7.739 8.726.135.713.759 1.22 1.473 1.22.041 0 .083-.001.125-.005.765-.063 1.358-.694 1.376-1.461.13-5.71 8.331-8.634 8.412-8.662.676-.234 1.094-.913.996-1.622-.099-.708-.684-1.249-1.398-1.292zm-9.585 6.795c-.924-1.886-2.34-3.947-4.447-5.28 1.855-1.041 3.697-2.63 4.871-4.916 1.057 1.873 2.654 3.954 4.941 5.223-1.85 1.101-3.989 2.741-5.365 4.973z" fill="#3a312a"/><path d="m50.045 85.56c-.689 8.179-9.212 9.471-9.212 9.471 7.318.344 9.142 9.944 9.142 9.944.156-6.845 9.422-10.045 9.422-10.045-6.941-.415-9.352-9.37-9.352-9.37z" fill="#d7e057"/><path d="m59.487 93.432c-5.766-.345-7.972-8.185-7.994-8.265-.19-.702-.851-1.167-1.582-1.102-.726.065-1.299.642-1.36 1.368-.579 6.871-7.646 8.067-7.942 8.114-.763.115-1.313.79-1.273 1.56s.657 1.384 1.427 1.421c6.035.284 7.724 8.644 7.739 8.726.135.712.759 1.22 1.473 1.22.041 0 .083-.001.125-.005.765-.063 1.358-.694 1.376-1.461.13-5.709 8.332-8.634 8.412-8.662.677-.234 1.094-.913.996-1.622-.098-.707-.683-1.249-1.397-1.292zm-9.585 6.795c-.924-1.885-2.34-3.947-4.447-5.279 1.855-1.042 3.697-2.63 4.871-4.917 1.057 1.874 2.654 3.954 4.941 5.224-1.85 1.101-3.989 2.74-5.365 4.972z" fill="#3a312a"/><path d="m205.272 183.09h-19.53v-12.693c-5.402 3.745-10.991 5.954-16.415 5.954-5.203 0-10.693-2.231-16.073-6.021h-.331v12.759h-19.543c-16.327 0-29.56 13.234-29.56 29.56v26.788h131.012v-26.787c0-16.326-13.233-29.56-29.56-29.56z" fill="#fce8cb"/><path d="m205.271 181.59h-18.03v-11.193c0-.558-.31-1.07-.805-1.329-.494-.258-1.091-.222-1.55.096-5.442 3.774-10.678 5.687-15.56 5.687-4.679 0-9.796-1.934-15.209-5.747-.253-.178-.555-.274-.864-.274h-.331c-.828 0-1.5.671-1.5 1.5v11.259h-18.041c-17.127 0-31.061 13.934-31.061 31.061v26.788c0 .829.671 1.5 1.5 1.5h44.89c.828 0 1.5-.671 1.5-1.5s-.672-1.5-1.5-1.5h-43.39v-25.288c0-15.473 12.588-28.061 28.061-28.061h19.541c.828 0 1.5-.671 1.5-1.5v-10.176c5.2 3.278 10.204 4.937 14.904 4.937 4.777 0 9.784-1.576 14.915-4.69v9.929c0 .829.672 1.5 1.5 1.5h19.53c15.473 0 28.06 12.588 28.06 28.061v25.288h-69.854c-.828 0-1.5.671-1.5 1.5s.672 1.5 1.5 1.5h71.354c.828 0 1.5-.671 1.5-1.5v-26.788c.001-17.126-13.933-31.06-31.06-31.06z" fill="#3a312a"/><path d="m205.272 183.081h-4.673l.122.088-20.315 26.943-10.483-7.898-10.483 7.898-20.315-26.943.121-.088h-5.866c-16.327 0-29.56 13.234-29.56 29.56v26.799h131.012v-26.799c.001-16.326-13.233-29.56-29.56-29.56z" fill="#8ac6dd"/><path d="m205.272 181.581h-4.672c-.649 0-1.225.417-1.426 1.035-.019.058-.034.116-.046.174l-19.017 25.222-9.286-6.997c-.533-.402-1.271-.402-1.805 0l-9.286 6.997-19.016-25.22c-.011-.058-.026-.116-.045-.173-.2-.619-.776-1.038-1.427-1.038h-5.866c-17.127 0-31.061 13.934-31.061 31.06v26.799c0 .829.671 1.5 1.5 1.5h44.89c.828 0 1.5-.671 1.5-1.5s-.672-1.5-1.5-1.5h-43.39v-25.299c0-15.473 12.588-28.06 28.061-28.06h4.93l19.932 26.434c.497.661 1.437.793 2.1.295l9.581-7.219 9.581 7.219c.662.498 1.602.367 2.1-.295l19.932-26.434h3.737c15.473 0 28.061 12.588 28.061 28.06v25.299h-69.856c-.828 0-1.5.671-1.5 1.5s.672 1.5 1.5 1.5h71.356c.828 0 1.5-.671 1.5-1.5v-26.799c-.001-17.126-13.935-31.06-31.062-31.06z" fill="#3a312a"/><ellipse clip-rule="evenodd" cx="118.567" cy="109.811" fill="#fce8cb" fill-rule="evenodd" rx="11.631" ry="11.631" transform="matrix(.924 -.383 .383 .924 -32.998 53.733)"/><path d="m118.567 96.68c-7.241 0-13.131 5.891-13.131 13.131 0 7.241 5.891 13.131 13.131 13.131 7.241 0 13.131-5.891 13.131-13.131 0-7.241-5.89-13.131-13.131-13.131zm0 23.263c-5.586 0-10.131-4.545-10.131-10.131s4.545-10.131 10.131-10.131 10.131 4.545 10.131 10.131-4.545 10.131-10.131 10.131z" fill="#3a312a"/><ellipse clip-rule="evenodd" cx="220.089" cy="109.811" fill="#fce8cb" fill-rule="evenodd" rx="11.632" ry="11.631" transform="matrix(.995 -.099 .099 .995 -9.749 22.221)"/><path d="m220.089 96.68c-7.241 0-13.132 5.891-13.132 13.131 0 7.241 5.891 13.131 13.132 13.131s13.132-5.891 13.132-13.131c0-7.241-5.891-13.131-13.132-13.131zm0 23.263c-5.587 0-10.132-4.545-10.132-10.131s4.545-10.131 10.132-10.131 10.132 4.545 10.132 10.131-4.545 10.131-10.132 10.131z" fill="#3a312a"/><path d="m169.328 52.602c-28.477 0-51.563 23.086-51.563 51.563 0 28.478 28.524 72.189 51.563 72.189 24.137 0 51.563-43.711 51.563-72.189s-23.085-51.563-51.563-51.563z" fill="#fce8cb"/><g fill="#3a312a"><path d="m169.328 51.102c-29.26 0-53.063 23.804-53.063 53.063 0 13.838 6.67 32.087 17.407 47.626 11.277 16.319 24.606 26.063 35.656 26.063 11.633 0 24.78-9.502 36.072-26.071 10.48-15.377 16.991-33.623 16.991-47.618.001-29.259-23.803-53.063-53.063-53.063zm33.594 98.991c-10.566 15.504-23.125 24.76-33.594 24.76-10.064 0-22.471-9.259-33.188-24.768-10.41-15.064-16.876-32.66-16.876-45.92 0-27.605 22.458-50.063 50.063-50.063 27.606 0 50.064 22.458 50.064 50.063.001 13.424-6.31 31.023-16.469 45.928z"/><path d="m151.123 98.55c-2.78 0-5.033 2.253-5.033 5.033s2.253 5.033 5.033 5.033 5.033-2.253 5.033-5.033-2.253-5.033-5.033-5.033z"/><path d="m187.533 98.55c-2.78 0-5.033 2.253-5.033 5.033s2.253 5.033 5.033 5.033 5.033-2.253 5.033-5.033c-.001-2.78-2.254-5.033-5.033-5.033z"/></g><path d="m141.065 112.064c-4.788 0-8.67 2.902-8.67 6.481s3.882 6.481 8.67 6.481 8.67-2.902 8.67-6.481c-.001-3.579-3.882-6.481-8.67-6.481z" fill="#f5978a"/><path d="m197.591 112.064c-4.788 0-8.67 2.902-8.67 6.481s3.882 6.481 8.67 6.481 8.669-2.902 8.669-6.481c.001-3.579-3.881-6.481-8.669-6.481z" fill="#f5978a"/><path d="m223.293 92.246c0-28.18-23.895-51.025-53.37-51.025s-53.37 22.845-53.37 51.026c0 2.982.539 5.204 1.542 7.981.473 1.309 8.115-2.871 8.766-3.329 3.254-2.291 5.913-5.396 7.901-8.829.822-1.427 1.507-2.88 2.059-4.333 1.759-4.635 6.539-17.533 11.392-16.521 6.508 1.357 13.885 2.123 21.71 2.123s15.202-.767 21.71-2.123c4.853-1.012 9.633 11.886 11.392 16.521.551 1.453 1.237 2.905 2.059 4.333 3.283 5.679 8.829 11.086 15.575 12.069.017-.326.428-.437.735-.548 2.209-.803 1.899-5.574 1.899-7.345z" fill="#87796f"/><path d="m224.799 92.821-.006-.575c0-28.962-24.614-52.525-54.87-52.525-30.255 0-54.87 23.563-54.87 52.526 0 3.31.625 5.703 1.631 8.491.196.541.635.956 1.206 1.135.187.059.404.086.646.086 2.854 0 9.127-3.791 9.188-3.834 3.257-2.293 6.139-5.51 8.337-9.308.85-1.476 1.576-3.006 2.161-4.549l.11-.29c5.282-13.939 8.249-15.561 9.574-15.295 6.858 1.43 14.266 2.155 22.016 2.155 7.749 0 15.157-.725 22.018-2.155 1.303-.274 4.29 1.355 9.572 15.295l.11.291c.588 1.547 1.315 3.078 2.162 4.551 4.102 7.093 10.328 11.879 16.657 12.803.418.06.842-.057 1.169-.325.103-.084.193-.182.27-.289.014-.005.024-.009.026-.009 2.996-1.088 2.929-5.701 2.893-8.179zm-3.99 5.386c-.149.052-.416.146-.692.315-5.172-1.058-10.258-5.19-13.732-11.2-.767-1.333-1.425-2.718-1.956-4.117l-.109-.289c-3.451-9.108-7.706-18.271-12.99-17.168-6.66 1.388-13.861 2.091-21.405 2.091s-14.745-.704-21.404-2.091c-5.285-1.105-9.539 8.059-12.991 17.168l-.109.289c-.528 1.394-1.187 2.779-1.954 4.113-1.98 3.421-4.562 6.31-7.462 8.351-.895.608-5.022 2.729-6.788 3.213-.724-2.139-1.16-4.09-1.16-6.635 0-27.309 23.269-49.526 51.87-49.526 28.602 0 51.87 22.217 51.87 49.525l.007.619c.058 4.312-.552 5.182-.995 5.342z" fill="#3a312a"/><path d="m147.958 175.801h13.182v33.743h-13.182z" fill="#87796f" transform="matrix(.799 -.602 .602 .799 -84.835 131.819)"/><path d="m171.164 201.276-20.308-26.947c-.24-.318-.596-.527-.989-.583-.4-.055-.795.048-1.111.288l-10.527 7.934c-.318.239-.527.595-.583.989-.056.393.048.793.287 1.111l20.309 26.947c.295.391.744.597 1.199.597.315 0 .632-.098.901-.302l10.526-7.933c.662-.499.794-1.439.296-2.101zm-11.43 6.735-18.503-24.551 8.132-6.128 18.502 24.552z" fill="#3a312a"/><path d="m168.427 186.081h33.743v13.182h-33.743z" fill="#87796f" transform="matrix(.602 -.799 .799 .602 -80.094 224.691)"/><path d="m202.201 182.957c-.056-.394-.265-.75-.583-.989l-10.527-7.934c-.317-.24-.72-.343-1.111-.288-.394.055-.75.265-.989.583l-20.308 26.947c-.498.662-.366 1.602.296 2.101l10.526 7.933c.269.204.587.302.901.302.455 0 .904-.206 1.199-.597l20.309-26.947c.239-.318.343-.718.287-1.111zm-22.089 25.054-8.131-6.127 18.502-24.552 8.132 6.128z" fill="#3a312a"/><path d="m128.36 216.768c-.829 0-1.5.671-1.5 1.5v21.173c0 .829.671 1.5 1.5 1.5.828 0 1.5-.671 1.5-1.5v-21.173c0-.828-.672-1.5-1.5-1.5z" fill="#3a312a"/><path d="m211.485 216.768c-.828 0-1.5.671-1.5 1.5v21.173c0 .829.672 1.5 1.5 1.5s1.5-.671 1.5-1.5v-21.173c0-.828-.672-1.5-1.5-1.5z" fill="#3a312a"/><path d="m168.959 22.701c-36.348 21.383-57.445-19.722-57.445-.976 0 5.925 2.387 11.835 5.521 17.212l8.675 12.297c8.753 11.021 19.223 22.772 31.868 26.367 20.368 5.791 56.418-1.433 56.418-30.749-.001-18.746-15.713-41.402-45.037-24.151z" fill="#87796f"/><path d="m200.593 18.222c-6.241-3.569-16.927-5.915-32.395 3.185-21.143 12.438-36.888 2.996-46.295-2.646-4.471-2.682-7.423-4.453-9.719-3.154-1.924 1.09-2.171 3.842-2.171 6.118 0 5.481 1.872 11.358 5.725 17.968.022.038.045.074.07.109l8.675 12.297c.016.023.033.046.051.068 9.376 11.806 19.819 23.234 32.633 26.877 4.306 1.224 9.365 1.896 14.681 1.896 10.82 0 22.697-2.785 31.409-9.365 8.006-6.047 12.238-14.596 12.238-24.722 0-10.009-4.608-22.743-14.902-28.631zm.855 50.96c-12.209 9.221-31.104 10.489-43.461 6.977-11.985-3.408-22.02-14.422-31.077-25.824l-8.613-12.208c-3.555-6.116-5.284-11.482-5.284-16.401 0-3.103.623-3.492.649-3.507.768-.441 4.196 1.616 6.697 3.116 9.324 5.591 26.679 16 49.359 2.659 11.261-6.625 21.422-7.72 29.384-3.167 9.251 5.291 13.392 16.884 13.392 26.026.001 9.279-3.716 16.792-11.046 22.329z" fill="#3a312a"/><path d="m184.101 135.717c-.778-.29-1.641.103-1.931.879-1.023 2.731-5.023 7.894-12.844 7.894-6.108 0-10.326-2.621-12.894-8.013-.355-.748-1.25-1.066-1.999-.709-.748.356-1.066 1.251-.71 1.999 3.073 6.452 8.322 9.723 15.603 9.723 8.222 0 13.878-5.102 15.652-9.842.291-.776-.102-1.641-.877-1.931z" fill="#3a312a"/><path d="m205.273 184.586h-3.74l-1.84 2.44c9.8 4.37 16.64 14.21 16.64 25.62v25.3h17v-25.3c0-15.48-12.59-28.06-28.06-28.06z" fill="#68a7bb"/><circle clip-rule="evenodd" cx="65.887" cy="194.442" fill="#d5de58" fill-rule="evenodd" r="44.72"/><path d="m65.887 148.222c-25.486 0-46.22 20.734-46.22 46.22s20.734 46.22 46.22 46.22 46.22-20.734 46.22-46.22-20.734-46.22-46.22-46.22zm0 89.44c-23.832 0-43.22-19.389-43.22-43.22s19.389-43.22 43.22-43.22c23.832 0 43.22 19.388 43.22 43.22s-19.388 43.22-43.22 43.22z" fill="#3a312a"/><path d="m75.643 184.966v-19.189h-19.512v19.189h-19.189v19.512h19.189v19.19h19.512v-19.19h19.19v-19.512z" fill="#ef6d7a"/><path d="m94.833 183.466h-17.69v-17.69c0-.829-.671-1.5-1.5-1.5h-19.512c-.829 0-1.5.671-1.5 1.5v17.69h-17.689c-.829 0-1.5.671-1.5 1.5v19.512c0 .829.671 1.5 1.5 1.5h17.689v17.69c0 .829.671 1.5 1.5 1.5h19.512c.829 0 1.5-.671 1.5-1.5v-17.69h17.69c.829 0 1.5-.671 1.5-1.5v-19.512c0-.828-.671-1.5-1.5-1.5zm-1.5 19.512h-17.69c-.829 0-1.5.671-1.5 1.5v17.69h-16.512v-17.69c0-.829-.671-1.5-1.5-1.5h-17.689v-16.512h17.689c.829 0 1.5-.671 1.5-1.5v-17.69h16.512v17.69c0 .829.671 1.5 1.5 1.5h17.69z" fill="#3a312a"/></svg>