<svg id="_x33_0" enable-background="new 0 0 64 64" height="512" viewBox="0 0 64 64" width="512" xmlns="http://www.w3.org/2000/svg"><g><g><g><path d="m19 20v4.13c-.32-.09-.65-.13-1-.13-1.05 0-2 .41-2.72 1.07l-1.44-.36c-.84-.21-1.54-.69-2.05-1.33-.5-.64-.79-1.45-.79-2.31 0-1.78 1.26-3.32 3.01-3.67l1.99-.4z" fill="#d3a06c"/></g><g><path d="m62 54v4c0 2.21-3.13 4-7 4s-7-1.79-7-4v-1-3c0 2.21 3.13 4 7 4s7-1.79 7-4z" fill="#fcd770"/></g><g><path d="m56.75 50.13c3.02.44 5.25 2 5.25 3.87 0 2.21-3.13 4-7 4s-7-1.79-7-4c0-.35.08-.68.23-1 .56-1.25 2.15-2.26 4.22-2.72.79-.18 1.65-.28 2.55-.28.61 0 1.19.04 1.75.13z" fill="#ffc729"/></g><g><path d="m57 48c0 .73-.09 1.44-.25 2.13-.56-.09-1.14-.13-1.75-.13-.9 0-1.76.1-2.55.28v-.01c.35-.68.55-1.45.55-2.27 0-2.76-2.24-5-5-5s-5 2.24-5 5 2.24 5 5 5h.22.01c-.15.32-.23.65-.23 1v3c-.14 0-.29 0-.43-.01-4.77-.23-8.57-4.17-8.57-8.99 0-4.97 4.03-9 9-9 .18 0 .36.01.54.02 4.72.28 8.46 4.19 8.46 8.98z" fill="#ffc729"/></g><g><path d="m53 48c0 .82-.2 1.59-.55 2.27v.01c-2.07.46-3.66 1.47-4.22 2.72h-.01c-.07 0-.15 0-.22 0-2.76 0-5-2.24-5-5s2.24-5 5-5 5 2.24 5 5z" fill="#fcd770"/></g><g><path d="m48 15s-1 5-4 9c-.14 0-.28.01-.42.04-.09.02-6.06 1.29-12.61 2.16 1.13-2.27 1.64-4.6 1.86-6.2h.17c3.52 0 6-1.72 8.67-3.14l.33-.18c1.78-.92 3.66-1.68 6-1.68z" fill="#d3a06c"/></g><g><path d="m45.96 25.58c.11.52.01 1.06-.28 1.51s-.74.75-1.26.87c-.05.01-.18.04-.4.08-1.89.39-9.88 1.99-17.24 2.66-2.02.19-3.99.3-5.78.3-.11 0-.22-.01-.32-.03.81-.73 1.32-1.79 1.32-2.97 0-.35-.05-.69-.13-1.01 2.8-.06 6.01-.38 9.1-.79 6.55-.87 12.52-2.14 12.61-2.16.14-.03.28-.04.42-.04.94 0 1.76.66 1.96 1.58z" fill="#ff826e"/></g><g><path d="m42 7v9.68c-.11.06-.22.12-.33.18-.91-2.82-3.55-4.86-6.67-4.86-3.87 0-7 3.13-7 7v-6.66-1.34-4c2.76 0 5-2.24 5-5h4c0 2.76 2.24 5 5 5z" fill="#b4dd7f"/></g><g><path d="m42 2v5c-2.76 0-5-2.24-5-5z" fill="#a0d468"/></g><g><path d="m41.67 16.86c-2.67 1.42-5.15 3.14-8.67 3.14h-.17c.16-1.21.17-2 .17-2l-2.4 1.03c-.85.36-1.72.68-2.6.94v-.97c0-3.87 3.13-7 7-7 3.12 0 5.76 2.04 6.67 4.86z" fill="#fcd770"/></g><g><path d="m28 2h5c0 2.76-2.24 5-5 5z" fill="#a0d468"/></g><g><path d="m23 20.91c1.7-.13 3.37-.45 5-.94.88-.26 1.75-.58 2.6-.94l2.4-1.03s-.01.79-.17 2c-.22 1.6-.73 3.93-1.86 6.2-3.09.41-6.3.73-9.1.79-.36-1.4-1.47-2.5-2.87-2.86v-4.13-1c0 .55.22 1.05.59 1.41.36.37.86.59 1.41.59.67 0 1.34-.03 2-.09z" fill="#d3a06c"/></g><g><path d="m28 19v.97c-1.63.49-3.3.81-5 .94v-3.91h-2c-.34 0-.67.09-.95.24.37-2.95 2.89-5.24 5.95-5.24.7 0 1.37.12 2 .34z" fill="#fcd770"/></g><g><path d="m48 39c.18 0 .36.01.54.02l-4.52-10.98c-1.89.39-9.88 1.99-17.24 2.66-2.02.19-3.99.3-5.78.3-.11 0-.22-.01-.32-.03-.47.42-1.05.74-1.68.9v12.45c0 .93-.75 1.68-1.68 1.68-.85 0-1.65-.33-2.25-.93-.69-.69-1.07-1.61-1.07-2.58 0-.33.04-.65.13-.96l2.65-9.72c-.49-.16-.93-.4-1.32-.72l-5.02 10.03c-.62 1.22-1.04 2.53-1.25 3.88-.13.73-.19 1.47-.19 2.22 0 3.61 1.31 6.96 3.52 9.55 2.2 2.58 5.3 4.39 8.87 4.93 1.22.19 2.44.3 3.61.3h6 1c2.08 0 4.11-.09 6.03-.22 3.83-.28 7.19-2.08 9.54-4.79-4.77-.23-8.57-4.17-8.57-8.99 0-4.97 4.03-9 9-9z" fill="#cf9e76"/></g><g><path d="m23 17v3.91c-.66.06-1.33.09-2 .09-.55 0-1.05-.22-1.41-.59-.37-.36-.59-.86-.59-1.41 0-.76.43-1.42 1.05-1.76.28-.15.61-.24.95-.24z" fill="#b27946"/></g><g><path d="m19 2 3.54 3.54c-1.96 1.95-5.12 1.95-7.08 0z" fill="#a0d468"/></g><g><path d="m22.54 5.54c-1.96 1.95-5.12 1.95-7.08 0l-1.92 1.92c1.95 1.96 1.95 5.12 0 7.08l2.46 2.46 3 3v-1c0-.76.43-1.42 1.05-1.76.37-2.95 2.89-5.24 5.95-5.24.7 0 1.37.12 2 .34v-1.34z" fill="#b4dd7f"/></g><g><path d="m10 11 3.54-3.54c1.95 1.96 1.95 5.12 0 7.08z" fill="#a0d468"/></g><g><path d="m21.87 26.99c.08.32.13.66.13 1.01 0 1.18-.51 2.24-1.32 2.97-.47.42-1.05.74-1.68.9-.32.09-.65.13-1 .13-.42 0-.83-.07-1.22-.19-.49-.16-.93-.4-1.32-.72-.89-.74-1.46-1.85-1.46-3.09 0-1.16.49-2.2 1.28-2.93.72-.66 1.67-1.07 2.72-1.07.35 0 .68.04 1 .13 1.4.36 2.51 1.46 2.87 2.86z" fill="#fc6e51"/></g><g><path d="m19 31.87v12.45c0 .93-.75 1.68-1.68 1.68-.85 0-1.65-.33-2.25-.93-.69-.69-1.07-1.61-1.07-2.58 0-.33.04-.65.13-.96l2.65-9.72c.39.12.8.19 1.22.19.35 0 .68-.04 1-.13z" fill="#ff826e"/></g><g><path d="m15.46 31.09-5.02 10.03c-.62 1.22-1.04 2.53-1.25 3.88h-.01-1.41c-1.15 0-2.26-.33-3.21-.91-.94-.59-1.73-1.43-2.25-2.47-.2-.41-.31-.86-.31-1.32 0-.83.35-1.62.96-2.18l11.04-10.12c0 1.24.57 2.35 1.46 3.09z" fill="#ff826e"/></g></g><g><path d="m32 35.685v-2.685h-2v2.08c-.328-.047-.66-.08-1-.08h-1v-2h-2v2h-4v5c0 2.785 1.639 5.188 4 6.315v7.66c-1.207-.914-2-2.348-2-3.974v-3h-2v3c0 2.785 1.639 5.188 4 6.315v2.684h2v-2.08c.328.047.66.08 1 .08h1v2h2v-2h4v-5c0-2.785-1.639-5.188-4-6.315v-7.66c1.207.914 2 2.348 2 3.974v3h2v-3c0-2.784-1.639-5.187-4-6.314zm-8 4.315v-3h2v6.974c-1.207-.913-2-2.347-2-3.974zm5 15c-.342 0-.677-.035-1-.101v-7.979c.328.047.66.08 1 .08.342 0 .677.035 1 .101v7.899zm5-3v3h-2v-6.974c1.207.913 2 2.347 2 3.974zm-4-6.92c-.328-.047-.66-.08-1-.08-.342 0-.677-.035-1-.101v-7.899h1c.342 0 .677.035 1 .101z"/><path d="m57.904 49.333c.059-.441.096-.886.096-1.333 0-5.095-3.833-9.304-8.766-9.916l-3.879-9.42c.468-.237.872-.583 1.164-1.035.435-.673.582-1.476.413-2.26-.173-.806-.688-1.474-1.358-1.893 2.497-3.874 3.367-8.086 3.406-8.28l.24-1.196h-1.22c-1.91 0-3.522.464-5 1.104v-14.104h-16v7.586l-8-8-10.414 10.414 5.386 5.386-.155.031c-2.212.442-3.817 2.4-3.817 4.656 0 2.183 1.479 4.077 3.598 4.607-.296.559-.484 1.176-.549 1.835l-10.766 9.868c-.815.748-1.283 1.811-1.283 2.919 0 .61.145 1.222.418 1.771 1.212 2.422 3.646 3.927 6.355 3.927h.298c-.034.406-.071.812-.071 1.22 0 7.684 5.691 14.335 13.24 15.474 1.353.202 2.617.306 3.76.306h7c1.951 0 4.004-.076 6.102-.226 3.4-.242 6.544-1.618 9.023-3.904.641 2.374 3.866 4.13 7.875 4.13 4.486 0 8-2.196 8-5v-4c0-2.159-2.088-3.954-5.096-4.667zm3.096 4.667c0 1.419-2.464 3-6 3s-6-1.581-6-3 2.464-3 6-3 6 1.581 6 3zm-9.293-4.569c-1.811.499-3.247 1.4-4.036 2.535-2.05-.169-3.671-1.872-3.671-3.966 0-2.206 1.794-4 4-4s4 1.794 4 4c0 .5-.116.975-.293 1.431zm4.293-1.431c0 .347-.027.692-.071 1.035-.305-.022-.614-.035-.929-.035-.376 0-.742.021-1.103.051.061-.347.103-.698.103-1.051 0-3.309-2.691-6-6-6s-6 2.691-6 6c0 2.97 2.17 5.435 5.007 5.911-.001.03-.007.059-.007.089v1.931c-3.94-.495-7-3.859-7-7.931 0-4.411 3.589-8 8-8s8 3.589 8 8zm-38-15v11.317c0 .376-.307.683-.683.683-.582 0-1.13-.227-1.542-.639-.493-.493-.775-1.175-.775-1.873 0-.235.031-.47.094-.697l2.411-8.841c.165.016.326.05.495.05zm0-2c-1.654 0-3-1.346-3-3s1.346-3 3-3 3 1.346 3 3-1.346 3-3 3zm15.91-28h2.181c.423 2.507 2.403 4.486 4.91 4.91v5.825c-1.485-1.694-3.636-2.735-6.001-2.735-2.39 0-4.533 1.059-6 2.726v-5.816c2.507-.424 4.486-2.403 4.91-4.91zm-3.708 15.111c-.39.167-.785.314-1.18.459.222-3.108 2.815-5.57 5.978-5.57 2.343 0 4.419 1.345 5.405 3.411-.13.072-.261.143-.39.215-1.937 1.076-3.78 2.097-6.066 2.325.045-.55.051-.895.051-.943l.013-1.53zm-3.202 1.103c-.987.263-1.987.465-3 .595v-3.809h-2.562c.78-1.773 2.538-3 4.562-3 .339 0 .672.044 1 .111zm-6-1.214h1v1.979c-.332.014-.666.021-1 .021-.552 0-1-.449-1-1s.448-1 1-1zm5-7c-3.366 0-6.238 2.409-6.867 5.67-.383.308-.698.698-.893 1.156l-3.353-3.353c.721-1.009 1.116-2.211 1.116-3.476 0-1.264-.393-2.464-1.113-3.473l.637-.637c1.008.72 2.209 1.113 3.473 1.113s2.465-.393 3.473-1.113l4.167 4.167c-.213-.019-.424-.054-.64-.054zm-6 10.816c.314.112.648.184 1 .184 3.454 0 6.815-.69 9.989-2.051l.881-.377c-.176 1.41-.6 3.576-1.581 5.715-2.62.336-5.307.599-7.729.684-.507-1.135-1.421-2.047-2.56-2.546zm2.995 6.139c8.65-.361 20.282-2.823 20.795-2.933.534-.113 1.074.241 1.188.768.056.262.007.529-.138.753-.147.228-.365.378-.628.435-.547.116-12.762 2.695-21.62 2.993.261-.606.408-1.271.408-1.971 0-.016-.004-.03-.005-.045zm20.442-4.896c-.022.004-.044.002-.066.007-.322.069-5.135 1.087-10.777 1.905.553-1.452.889-2.848 1.092-4.006 2.911-.173 5.144-1.394 7.299-2.591 1.834-1.019 3.584-1.991 5.705-2.284-.465 1.613-1.473 4.466-3.253 6.969zm-2.437-17.201c-1.399-.364-2.494-1.459-2.858-2.858h2.858zm-9.142-2.858c-.364 1.399-1.459 2.494-2.858 2.858v-2.858zm-10.845 2.427c-1.23.694-2.795.694-4.025 0l2.012-2.013zm-7.575 3.549c.359.608.565 1.297.565 2.021 0 .726-.206 1.416-.567 2.025l-2.022-2.022zm-1.438 12.097c0-1.306.93-2.439 2.21-2.695l1.461-.292 2.329 2.328v2.586c-1.106 0-2.119.372-2.948.982l-.97-.243c-1.226-.306-2.082-1.403-2.082-2.666zm-3.632 22.927h-.595c-1.946 0-3.696-1.081-4.566-2.821-.136-.273-.207-.575-.207-.877 0-.548.231-1.074.635-1.444l9.751-8.938c.209.5.51.946.861 1.349l-4.702 9.404c-.527 1.055-.917 2.176-1.177 3.327zm29.591 16.78c-2.05.146-4.055.22-5.959.22h-7c-1.043 0-2.208-.096-3.462-.285-6.578-.991-11.538-6.793-11.538-13.495 0-1.951.461-3.905 1.334-5.652l3.844-7.688-2.014 7.385c-.108.397-.164.809-.164 1.223 0 1.224.496 2.422 1.361 3.287.79.79 1.84 1.225 2.956 1.225 1.48 0 2.683-1.203 2.683-2.683v-11.741c.349-.153.67-.353.972-.578.009 0 .018.002.028.002 7.662 0 18.727-2.079 22.406-2.815l3.65 8.863c-5.072.478-9.056 4.757-9.056 9.952 0 4.637 3.177 8.536 7.466 9.662-2.098 1.817-4.7 2.918-7.507 3.118zm17.041.22c-3.536 0-6-1.581-6-3v-.667c1.455 1.026 3.583 1.667 6 1.667s4.545-.641 6-1.667v.667c0 1.419-2.464 3-6 3z"/></g></g></svg>