<svg height="512" viewBox="0 0 512 512" width="512" xmlns="http://www.w3.org/2000/svg"><g id="outline"><path d="m29.657 285.657 11.143-11.138a216.019 216.019 0 0 0 428.665 14.7 8 8 0 0 0 -15.813-2.442 200.019 200.019 0 0 1 -396.62-10.432l9.311 9.312a8 8 0 1 0 11.314-11.314l-24-24a8 8 0 0 0 -11.314 0l-24 24a8 8 0 0 0 11.314 11.314z"/><path d="m482.343 226.343-11.14 11.14a216.018 216.018 0 0 0 -428.663-14.7 8 8 0 0 0 15.813 2.442 200.023 200.023 0 0 1 396.622 10.441l-9.318-9.319a8 8 0 0 0 -11.314 11.314l24 24a8 8 0 0 0 11.314 0l24-24a8 8 0 0 0 -11.314-11.314z"/><path d="m301.11 342.154.012-.008s48.251-40.221 48.356-40.326a7.972 7.972 0 0 0 2.522-5.82s-.19-121.812-.343-122.318a8 8 0 0 0 -7.657-5.682h-128a7.993 7.993 0 0 0 -4.438 1.344l-48 32a7.978 7.978 0 0 0 -3.491 5.794c-.022.128-.036.276-.047.43 0 .1-.015.2-.016.3 0 .049-.008.084-.008.136v127.996a8 8 0 0 0 8 8h128a7.966 7.966 0 0 0 5.11-1.846zm34.89-49.9-32 26.666v-106.639l32-21.333zm-48 35.746h-112v-112h32v48a8 8 0 0 0 8 8h32a8 8 0 0 0 8-8v-48h32zm-64-72v-40h16v40zm-29.578-56 24-16h99.156l-24 16z"/><path d="m224 296h-16a8 8 0 0 0 0 16h16a8 8 0 0 0 0-16z"/><path d="m248 304a8 8 0 0 0 8 8h8a8 8 0 0 0 0-16h-8a8 8 0 0 0 -8 8z"/><circle cx="256" cy="384" r="8"/><circle cx="224" cy="384" r="8"/><circle cx="288" cy="384" r="8"/></g></svg>