<?xml version="1.0" encoding="iso-8859-1"?>
<!-- Generator: Adobe Illustrator 19.0.0, SVG Export Plug-In . SVG Version: 6.00 Build 0)  -->
<svg version="1.1" id="Layer_1" xmlns="http://www.w3.org/2000/svg" xmlns:xlink="http://www.w3.org/1999/xlink" x="0px" y="0px"
	 viewBox="0 0 469.333 469.333" style="enable-background:new 0 0 469.333 469.333;" xml:space="preserve">
<g>
	<g>
		<path d="M459.885,306.437l-49.272-114.971c21.018-2.634,37.387-20.41,37.387-42.133V128c0-23.531-19.135-42.667-42.667-42.667
			H290.462c-9.171-4.313-25.49-13.592-38.272-24.957c4.367,2.238,9.24,3.624,14.477,3.624c17.646,0,32-14.354,32-32
			c0-17.646-14.354-32-32-32s-32,14.354-32,32c0-17.646-14.354-32-32-32s-32,14.354-32,32c0,17.646,14.354,32,32,32
			c4.242,0,8.276-0.87,11.984-2.375c-11.138,9.507-24.831,18.051-35.948,23.708H64c-23.531,0-42.667,19.135-42.667,42.667v21.333
			c0,21.723,16.368,39.499,37.387,42.133L9.448,306.437C3.177,321.052,0,336.542,0,352.469c0,64.438,52.427,116.865,116.865,116.865
			h235.604c64.438,0,116.865-52.427,116.865-116.865C469.333,336.542,466.156,321.052,459.885,306.437z M266.667,21.333
			c5.885,0,10.667,4.781,10.667,10.667c0,5.885-4.781,10.667-10.667,10.667S256,37.885,256,32
			C256,26.115,260.781,21.333,266.667,21.333z M202.667,42.667C196.781,42.667,192,37.885,192,32
			c0-5.885,4.781-10.667,10.667-10.667S213.333,26.115,213.333,32C213.333,37.885,208.552,42.667,202.667,42.667z M233.983,72.802
			c4.689,4.609,9.79,8.772,14.898,12.531h-29.831C224.137,81.557,229.229,77.358,233.983,72.802z M42.667,149.333V128
			c0-11.76,9.573-21.333,21.333-21.333h341.333c11.76,0,21.333,9.573,21.333,21.333v21.333c0,11.76-9.573,21.333-21.333,21.333v-32
			c0-5.896-4.771-10.667-10.667-10.667h-320C68.771,128,64,132.771,64,138.667v32C52.24,170.667,42.667,161.094,42.667,149.333z
			 M352.469,448H116.865c-52.677,0-95.531-42.854-95.531-95.531c0-13.021,2.594-25.677,7.719-37.635l55.417-129.302
			c0.573-1.323,0.865-2.75,0.865-4.198v-32H384v32c0,1.448,0.292,2.875,0.865,4.198l55.417,129.302
			c5.125,11.958,7.719,24.615,7.719,37.635C448,405.146,405.146,448,352.469,448z"/>
	</g>
</g>
<g>
</g>
<g>
</g>
<g>
</g>
<g>
</g>
<g>
</g>
<g>
</g>
<g>
</g>
<g>
</g>
<g>
</g>
<g>
</g>
<g>
</g>
<g>
</g>
<g>
</g>
<g>
</g>
<g>
</g>
</svg>
